{
	"asset":{
		"generator":"Khronos glTF Blender I/O v4.2.57",
		"version":"2.0"
	},
	"scene":0,
	"scenes":[
		{
			"name":"Scene",
			"nodes":[
				0
			]
		}
	],
	"nodes":[
		{
			"mesh":0,
			"name":"Things",
			"translation":[
				-3.0436081886291504,
				0.45550328493118286,
				-1.6534730195999146
			]
		}
	],
	"materials":[
		{
			"doubleSided":true,
			"name":"TireWhite.001",
			"pbrMetallicRoughness":{
				"baseColorFactor":[
					0.800000011920929,
					0.800000011920929,
					0.800000011920929,
					1
				],
				"metallicFactor":0,
				"roughnessFactor":0.5
			}
		}
	],
	"meshes":[
		{
			"name":"B\u00e9zierCurve.002",
			"primitives":[
				{
					"attributes":{
						"POSITION":0,
						"NORMAL":1,
						"TEXCOORD_0":2
					},
					"indices":3,
					"material":0
				}
			]
		}
	],
	"accessors":[
		{
			"bufferView":0,
			"componentType":5126,
			"count":211420,
			"max":[
				8.493114471435547,
				4.623693466186523,
				7.02837610244751
			],
			"min":[
				-2.465430974960327,
				-0.5873861312866211,
				-3.8422513008117676
			],
			"type":"VEC3"
		},
		{
			"bufferView":1,
			"componentType":5126,
			"count":211420,
			"type":"VEC3"
		},
		{
			"bufferView":2,
			"componentType":5126,
			"count":211420,
			"type":"VEC2"
		},
		{
			"bufferView":3,
			"componentType":5125,
			"count":418575,
			"type":"SCALAR"
		}
	],
	"bufferViews":[
		{
			"buffer":0,
			"byteLength":2537040,
			"byteOffset":0,
			"target":34962
		},
		{
			"buffer":0,
			"byteLength":2537040,
			"byteOffset":2537040,
			"target":34962
		},
		{
			"buffer":0,
			"byteLength":1691360,
			"byteOffset":5074080,
			"target":34962
		},
		{
			"buffer":0,
			"byteLength":1674300,
			"byteOffset":6765440,
			"target":34963
		}
	],
	"buffers":[
		{
			"byteLength":8439740,
			"uri":"scene.bin"
		}
	]
}
