{
	"asset":{
		"generator":"Khronos glTF Blender I/O v4.2.57",
		"version":"2.0"
	},
	"scene":0,
	"scenes":[
		{
			"name":"Scene",
			"nodes":[
				0
			]
		}
	],
	"nodes":[
		{
			"mesh":0,
			"name":"Cylinder.010",
			"scale":[
				0.04497312381863594,
				0.006424611900001764,
				0.04497312381863594
			],
			"translation":[
				0.8261319994926453,
				0.19331645965576172,
				-0.08419257402420044
			]
		}
	],
	"meshes":[
		{
			"name":"Cylinder.010",
			"primitives":[
				{
					"attributes":{
						"POSITION":0,
						"NORMAL":1,
						"TEXCOORD_0":2
					},
					"indices":3
				}
			]
		}
	],
	"accessors":[
		{
			"bufferView":0,
			"componentType":5126,
			"count":8306,
			"max":[
				26.16758155822754,
				616.7177124023438,
				44.529090881347656
			],
			"min":[
				-25.025108337402344,
				0.049713134765625,
				-10.609362602233887
			],
			"type":"VEC3"
		},
		{
			"bufferView":1,
			"componentType":5126,
			"count":8306,
			"type":"VEC3"
		},
		{
			"bufferView":2,
			"componentType":5126,
			"count":8306,
			"type":"VEC2"
		},
		{
			"bufferView":3,
			"componentType":5123,
			"count":29346,
			"type":"SCALAR"
		}
	],
	"bufferViews":[
		{
			"buffer":0,
			"byteLength":99672,
			"byteOffset":0,
			"target":34962
		},
		{
			"buffer":0,
			"byteLength":99672,
			"byteOffset":99672,
			"target":34962
		},
		{
			"buffer":0,
			"byteLength":66448,
			"byteOffset":199344,
			"target":34962
		},
		{
			"buffer":0,
			"byteLength":58692,
			"byteOffset":265792,
			"target":34963
		}
	],
	"buffers":[
		{
			"byteLength":324484,
			"uri":"scene.bin"
		}
	]
}
