{
	"asset":{
		"generator":"Khronos glTF Blender I/O v4.2.57",
		"version":"2.0"
	},
	"scene":0,
	"scenes":[
		{
			"name":"Scene",
			"nodes":[
				0
			]
		}
	],
	"nodes":[
		{
			"mesh":0,
			"name":"Cylinder.010",
			"scale":[
				0.04497312381863594,
				0.006424611900001764,
				0.04497312381863594
			],
			"translation":[
				0.8261319994926453,
				0.19331645965576172,
				-0.08419257402420044
			]
		}
	],
	"meshes":[
		{
			"name":"Cylinder.010",
			"primitives":[
				{
					"attributes":{
						"POSITION":0,
						"NORMAL":1,
						"TEXCOORD_0":2
					},
					"indices":3
				}
			]
		}
	],
	"accessors":[
		{
			"bufferView":0,
			"componentType":5126,
			"count":8322,
			"max":[
				11.172657012939453,
				616.7177124023438,
				26.00365447998047
			],
			"min":[
				-43.965797424316406,
				0.049713134765625,
				-25.18903350830078
			],
			"type":"VEC3"
		},
		{
			"bufferView":1,
			"componentType":5126,
			"count":8322,
			"type":"VEC3"
		},
		{
			"bufferView":2,
			"componentType":5126,
			"count":8322,
			"type":"VEC2"
		},
		{
			"bufferView":3,
			"componentType":5123,
			"count":29346,
			"type":"SCALAR"
		}
	],
	"bufferViews":[
		{
			"buffer":0,
			"byteLength":99864,
			"byteOffset":0,
			"target":34962
		},
		{
			"buffer":0,
			"byteLength":99864,
			"byteOffset":99864,
			"target":34962
		},
		{
			"buffer":0,
			"byteLength":66576,
			"byteOffset":199728,
			"target":34962
		},
		{
			"buffer":0,
			"byteLength":58692,
			"byteOffset":266304,
			"target":34963
		}
	],
	"buffers":[
		{
			"byteLength":324996,
			"uri":"scene.bin"
		}
	]
}
