{
	"asset":{
		"generator":"Khronos glTF Blender I/O v4.2.57",
		"version":"2.0"
	},
	"scene":0,
	"scenes":[
		{
			"name":"Scene",
			"nodes":[
				0
			]
		}
	],
	"nodes":[
		{
			"mesh":0,
			"name":"Codeline1",
			"rotation":[
				0.5,
				0.5,
				-0.5,
				0.5
			],
			"scale":[
				0.4519073963165283,
				0.4519073963165283,
				0.4519073963165283
			],
			"translation":[
				0.24120934307575226,
				4.9272541999816895,
				7.0792975425720215
			]
		}
	],
	"meshes":[
		{
			"name":"Text",
			"primitives":[
				{
					"attributes":{
						"POSITION":0,
						"NORMAL":1,
						"TEXCOORD_0":2
					},
					"indices":3
				}
			]
		}
	],
	"accessors":[
		{
			"bufferView":0,
			"componentType":5126,
			"count":53073,
			"max":[
				30.7304744720459,
				11.209525108337402,
				11.22983169555664
			],
			"min":[
				-1.1236743927001953,
				-12.277040481567383,
				-5.050241947174072
			],
			"type":"VEC3"
		},
		{
			"bufferView":1,
			"componentType":5126,
			"count":53073,
			"type":"VEC3"
		},
		{
			"bufferView":2,
			"componentType":5126,
			"count":53073,
			"type":"VEC2"
		},
		{
			"bufferView":3,
			"componentType":5123,
			"count":184032,
			"type":"SCALAR"
		}
	],
	"bufferViews":[
		{
			"buffer":0,
			"byteLength":636876,
			"byteOffset":0,
			"target":34962
		},
		{
			"buffer":0,
			"byteLength":636876,
			"byteOffset":636876,
			"target":34962
		},
		{
			"buffer":0,
			"byteLength":424584,
			"byteOffset":1273752,
			"target":34962
		},
		{
			"buffer":0,
			"byteLength":368064,
			"byteOffset":1698336,
			"target":34963
		}
	],
	"buffers":[
		{
			"byteLength":2066400,
			"uri":"scene.bin"
		}
	]
}
