{
	"asset":{
		"generator":"Khronos glTF Blender I/O v4.2.57",
		"version":"2.0"
	},
	"scene":0,
	"scenes":[
		{
			"name":"Scene",
			"nodes":[
				0,
				1,
				2,
				3,
				4,
				5,
				6
			]
		}
	],
	"nodes":[
		{
			"mesh":0,
			"name":"Icosphere"
		},
		{
			"mesh":1,
			"name":"Icosphere.001",
			"translation":[
				-0.17192618548870087,
				-0.0863257423043251,
				6.179398536682129
			]
		},
		{
			"mesh":2,
			"name":"Icosphere.002",
			"rotation":[
				0,
				-1,
				0,
				1.6292068494294654e-07
			],
			"translation":[
				-7.199433326721191,
				0.9394490718841553,
				0.19772911071777344
			]
		},
		{
			"mesh":3,
			"name":"Icosphere.003",
			"rotation":[
				0,
				-0.9983004927635193,
				0,
				0.05827656388282776
			],
			"translation":[
				-6.724205493927002,
				0,
				-9.66105842590332
			]
		},
		{
			"mesh":4,
			"name":"Icosphere.004",
			"rotation":[
				0,
				-0.9983004927635193,
				0,
				0.05827656388282776
			],
			"translation":[
				-7.2724480628967285,
				-0.08632564544677734,
				-15.818489074707031
			]
		},
		{
			"mesh":5,
			"name":"Icosphere.005",
			"rotation":[
				0,
				0.05827660858631134,
				0,
				0.9983004927635193
			],
			"translation":[
				-3.130746364593506,
				-0.7711963653564453,
				-12.4930419921875
			]
		},
		{
			"mesh":6,
			"name":"Icosphere.006",
			"translation":[
				3.257648229598999,
				0.4532344341278076,
				-5.466651439666748
			]
		}
	],
	"meshes":[
		{
			"name":"Icosphere",
			"primitives":[
				{
					"attributes":{
						"POSITION":0,
						"NORMAL":1,
						"TEXCOORD_0":2
					},
					"indices":3
				}
			]
		},
		{
			"name":"Icosphere.003",
			"primitives":[
				{
					"attributes":{
						"POSITION":4,
						"NORMAL":5,
						"TEXCOORD_0":6
					},
					"indices":7
				}
			]
		},
		{
			"name":"Icosphere.004",
			"primitives":[
				{
					"attributes":{
						"POSITION":8,
						"NORMAL":9,
						"TEXCOORD_0":10
					},
					"indices":3
				}
			]
		},
		{
			"name":"Icosphere.005",
			"primitives":[
				{
					"attributes":{
						"POSITION":11,
						"NORMAL":12,
						"TEXCOORD_0":13
					},
					"indices":3
				}
			]
		},
		{
			"name":"Icosphere.006",
			"primitives":[
				{
					"attributes":{
						"POSITION":14,
						"NORMAL":15,
						"TEXCOORD_0":16
					},
					"indices":7
				}
			]
		},
		{
			"name":"Icosphere.007",
			"primitives":[
				{
					"attributes":{
						"POSITION":17,
						"NORMAL":18,
						"TEXCOORD_0":19
					},
					"indices":3
				}
			]
		},
		{
			"name":"Icosphere.008",
			"primitives":[
				{
					"attributes":{
						"POSITION":20,
						"NORMAL":21,
						"TEXCOORD_0":22
					},
					"indices":23
				}
			]
		}
	],
	"accessors":[
		{
			"bufferView":0,
			"componentType":5126,
			"count":180,
			"max":[
				1.1817388534545898,
				1.6947410106658936,
				1.0127348899841309
			],
			"min":[
				-1.4606329202651978,
				-0.9092099070549011,
				-3.7611639499664307
			],
			"type":"VEC3"
		},
		{
			"bufferView":1,
			"componentType":5126,
			"count":180,
			"type":"VEC3"
		},
		{
			"bufferView":2,
			"componentType":5126,
			"count":180,
			"type":"VEC2"
		},
		{
			"bufferView":3,
			"componentType":5123,
			"count":180,
			"type":"SCALAR"
		},
		{
			"bufferView":4,
			"componentType":5126,
			"count":180,
			"max":[
				1.4455039501190186,
				1.6515957117080688,
				1.3805315494537354
			],
			"min":[
				-1.153541088104248,
				-1.132869005203247,
				-3.8771419525146484
			],
			"type":"VEC3"
		},
		{
			"bufferView":5,
			"componentType":5126,
			"count":180,
			"type":"VEC3"
		},
		{
			"bufferView":6,
			"componentType":5126,
			"count":180,
			"type":"VEC2"
		},
		{
			"bufferView":7,
			"componentType":5123,
			"count":180,
			"type":"SCALAR"
		},
		{
			"bufferView":8,
			"componentType":5126,
			"count":180,
			"max":[
				1.1817388534545898,
				1.6947410106658936,
				1.0127348899841309
			],
			"min":[
				-1.4606329202651978,
				-0.9092099070549011,
				-3.7611639499664307
			],
			"type":"VEC3"
		},
		{
			"bufferView":9,
			"componentType":5126,
			"count":180,
			"type":"VEC3"
		},
		{
			"bufferView":10,
			"componentType":5126,
			"count":180,
			"type":"VEC2"
		},
		{
			"bufferView":11,
			"componentType":5126,
			"count":180,
			"max":[
				1.1817388534545898,
				1.6947410106658936,
				1.0127348899841309
			],
			"min":[
				-1.4606329202651978,
				-0.9092099070549011,
				-3.7611639499664307
			],
			"type":"VEC3"
		},
		{
			"bufferView":12,
			"componentType":5126,
			"count":180,
			"type":"VEC3"
		},
		{
			"bufferView":13,
			"componentType":5126,
			"count":180,
			"type":"VEC2"
		},
		{
			"bufferView":14,
			"componentType":5126,
			"count":180,
			"max":[
				1.4455039501190186,
				1.6515957117080688,
				1.3805315494537354
			],
			"min":[
				-1.153541088104248,
				-1.132869005203247,
				-3.8771419525146484
			],
			"type":"VEC3"
		},
		{
			"bufferView":15,
			"componentType":5126,
			"count":180,
			"type":"VEC3"
		},
		{
			"bufferView":16,
			"componentType":5126,
			"count":180,
			"type":"VEC2"
		},
		{
			"bufferView":17,
			"componentType":5126,
			"count":180,
			"max":[
				1.1817388534545898,
				1.6947410106658936,
				1.0127348899841309
			],
			"min":[
				-1.4606329202651978,
				-0.9092099070549011,
				-3.7611639499664307
			],
			"type":"VEC3"
		},
		{
			"bufferView":18,
			"componentType":5126,
			"count":180,
			"type":"VEC3"
		},
		{
			"bufferView":19,
			"componentType":5126,
			"count":180,
			"type":"VEC2"
		},
		{
			"bufferView":20,
			"componentType":5126,
			"count":180,
			"max":[
				1.3241881132125854,
				1.659764051437378,
				0.8275564908981323
			],
			"min":[
				-1.559178352355957,
				-1.1126699447631836,
				-3.7674975395202637
			],
			"type":"VEC3"
		},
		{
			"bufferView":21,
			"componentType":5126,
			"count":180,
			"type":"VEC3"
		},
		{
			"bufferView":22,
			"componentType":5126,
			"count":180,
			"type":"VEC2"
		},
		{
			"bufferView":23,
			"componentType":5123,
			"count":180,
			"type":"SCALAR"
		}
	],
	"bufferViews":[
		{
			"buffer":0,
			"byteLength":2160,
			"byteOffset":0,
			"target":34962
		},
		{
			"buffer":0,
			"byteLength":2160,
			"byteOffset":2160,
			"target":34962
		},
		{
			"buffer":0,
			"byteLength":1440,
			"byteOffset":4320,
			"target":34962
		},
		{
			"buffer":0,
			"byteLength":360,
			"byteOffset":5760,
			"target":34963
		},
		{
			"buffer":0,
			"byteLength":2160,
			"byteOffset":6120,
			"target":34962
		},
		{
			"buffer":0,
			"byteLength":2160,
			"byteOffset":8280,
			"target":34962
		},
		{
			"buffer":0,
			"byteLength":1440,
			"byteOffset":10440,
			"target":34962
		},
		{
			"buffer":0,
			"byteLength":360,
			"byteOffset":11880,
			"target":34963
		},
		{
			"buffer":0,
			"byteLength":2160,
			"byteOffset":12240,
			"target":34962
		},
		{
			"buffer":0,
			"byteLength":2160,
			"byteOffset":14400,
			"target":34962
		},
		{
			"buffer":0,
			"byteLength":1440,
			"byteOffset":16560,
			"target":34962
		},
		{
			"buffer":0,
			"byteLength":2160,
			"byteOffset":18000,
			"target":34962
		},
		{
			"buffer":0,
			"byteLength":2160,
			"byteOffset":20160,
			"target":34962
		},
		{
			"buffer":0,
			"byteLength":1440,
			"byteOffset":22320,
			"target":34962
		},
		{
			"buffer":0,
			"byteLength":2160,
			"byteOffset":23760,
			"target":34962
		},
		{
			"buffer":0,
			"byteLength":2160,
			"byteOffset":25920,
			"target":34962
		},
		{
			"buffer":0,
			"byteLength":1440,
			"byteOffset":28080,
			"target":34962
		},
		{
			"buffer":0,
			"byteLength":2160,
			"byteOffset":29520,
			"target":34962
		},
		{
			"buffer":0,
			"byteLength":2160,
			"byteOffset":31680,
			"target":34962
		},
		{
			"buffer":0,
			"byteLength":1440,
			"byteOffset":33840,
			"target":34962
		},
		{
			"buffer":0,
			"byteLength":2160,
			"byteOffset":35280,
			"target":34962
		},
		{
			"buffer":0,
			"byteLength":2160,
			"byteOffset":37440,
			"target":34962
		},
		{
			"buffer":0,
			"byteLength":1440,
			"byteOffset":39600,
			"target":34962
		},
		{
			"buffer":0,
			"byteLength":360,
			"byteOffset":41040,
			"target":34963
		}
	],
	"buffers":[
		{
			"byteLength":41400,
			"uri":"scene.bin"
		}
	]
}
