{
	"asset":{
		"generator":"Khronos glTF Blender I/O v4.2.57",
		"version":"2.0"
	},
	"scene":0,
	"scenes":[
		{
			"name":"Scene",
			"nodes":[
				0
			]
		}
	],
	"nodes":[
		{
			"mesh":0,
			"name":"object",
			"scale":[
				0.8549246788024902,
				0.08674664795398712,
				0.045367248356342316
			],
			"translation":[
				0.8392331600189209,
				0.06985632330179214,
				-1.563973069190979
			]
		}
	],
	"materials":[
		{
			"doubleSided":true,
			"name":"Concrete",
			"pbrMetallicRoughness":{
				"baseColorFactor":[
					0.8000315427780151,
					0.7555180788040161,
					0.5381696224212646,
					1
				],
				"metallicFactor":0,
				"roughnessFactor":0.5
			}
		},
		{
			"doubleSided":true,
			"name":"Grass",
			"pbrMetallicRoughness":{
				"baseColorFactor":[
					0.25343820452690125,
					0.8001489639282227,
					0.15782798826694489,
					1
				],
				"metallicFactor":0,
				"roughnessFactor":0.5
			}
		},
		{
			"doubleSided":true,
			"name":"Street",
			"pbrMetallicRoughness":{
				"baseColorFactor":[
					0.09514789283275604,
					0.09514789283275604,
					0.09514789283275604,
					1
				],
				"metallicFactor":0,
				"roughnessFactor":0.5
			}
		},
		{
			"doubleSided":true,
			"name":"WindowsNoImage",
			"pbrMetallicRoughness":{
				"baseColorFactor":[
					0.09705383330583572,
					0.2476964294910431,
					0.5866305232048035,
					1
				],
				"metallicFactor":0,
				"roughnessFactor":0.5
			}
		},
		{
			"doubleSided":true,
			"name":"Metal",
			"pbrMetallicRoughness":{
				"baseColorFactor":[
					0.2644570469856262,
					0.2644570469856262,
					0.2644570469856262,
					1
				],
				"metallicFactor":0,
				"roughnessFactor":0.5
			}
		},
		{
			"doubleSided":true,
			"name":"Trunk",
			"pbrMetallicRoughness":{
				"baseColorFactor":[
					0.2468658983707428,
					0.14118729531764984,
					0.02185569889843464,
					1
				],
				"metallicFactor":0,
				"roughnessFactor":0.5
			}
		},
		{
			"doubleSided":true,
			"name":"Leaves",
			"pbrMetallicRoughness":{
				"baseColorFactor":[
					0.02394094690680504,
					0.23014985024929047,
					0.01823568530380726,
					1
				],
				"metallicFactor":0,
				"roughnessFactor":0.5
			}
		},
		{
			"doubleSided":true,
			"name":"carBlack",
			"pbrMetallicRoughness":{
				"baseColorFactor":[
					0.007135664112865925,
					0.007135664112865925,
					0.007135664112865925,
					1
				],
				"metallicFactor":0,
				"roughnessFactor":0.5
			}
		},
		{
			"doubleSided":true,
			"name":"Window",
			"pbrMetallicRoughness":{
				"baseColorFactor":[
					0.800000011920929,
					0.800000011920929,
					0.800000011920929,
					1
				],
				"metallicFactor":0,
				"roughnessFactor":0.5
			}
		},
		{
			"doubleSided":true,
			"name":"carYellow",
			"pbrMetallicRoughness":{
				"baseColorFactor":[
					0.8001260757446289,
					0.7222724556922913,
					0.07220998406410217,
					1
				],
				"metallicFactor":0,
				"roughnessFactor":0.5
			}
		},
		{
			"doubleSided":true,
			"name":"TireBlack",
			"pbrMetallicRoughness":{
				"baseColorFactor":[
					0,
					0,
					0,
					1
				],
				"metallicFactor":0,
				"roughnessFactor":0.5
			}
		},
		{
			"doubleSided":true,
			"name":"TireWhite",
			"pbrMetallicRoughness":{
				"baseColorFactor":[
					0.800000011920929,
					0.800000011920929,
					0.800000011920929,
					1
				],
				"metallicFactor":0,
				"roughnessFactor":0.5
			}
		},
		{
			"doubleSided":true,
			"name":"carRed",
			"pbrMetallicRoughness":{
				"baseColorFactor":[
					0.800054669380188,
					0.041889894753694534,
					0.04927028343081474,
					1
				],
				"metallicFactor":0,
				"roughnessFactor":0.5
			}
		},
		{
			"doubleSided":true,
			"name":"carWhite",
			"pbrMetallicRoughness":{
				"baseColorFactor":[
					0.4877956509590149,
					0.4353291392326355,
					0.41315197944641113,
					1
				],
				"metallicFactor":0,
				"roughnessFactor":0.5
			}
		},
		{
			"doubleSided":true,
			"name":"carBlue",
			"pbrMetallicRoughness":{
				"baseColorFactor":[
					0.03978630155324936,
					0.06699249893426895,
					0.8000937700271606,
					1
				],
				"metallicFactor":0,
				"roughnessFactor":0.5
			}
		},
		{
			"doubleSided":true,
			"name":"carGreen",
			"pbrMetallicRoughness":{
				"baseColorFactor":[
					0.2693290710449219,
					0.8001017570495605,
					0.12134250998497009,
					1
				],
				"metallicFactor":0,
				"roughnessFactor":0.5
			}
		}
	],
	"meshes":[
		{
			"name":"Cube.005",
			"primitives":[
				{
					"attributes":{
						"POSITION":0,
						"NORMAL":1,
						"TEXCOORD_0":2
					},
					"indices":3,
					"material":0
				},
				{
					"attributes":{
						"POSITION":4,
						"NORMAL":5,
						"TEXCOORD_0":6
					},
					"indices":7,
					"material":1
				},
				{
					"attributes":{
						"POSITION":8,
						"NORMAL":9,
						"TEXCOORD_0":10
					},
					"indices":11,
					"material":2
				},
				{
					"attributes":{
						"POSITION":12,
						"NORMAL":13,
						"TEXCOORD_0":14
					},
					"indices":15,
					"material":3
				},
				{
					"attributes":{
						"POSITION":16,
						"NORMAL":17,
						"TEXCOORD_0":18
					},
					"indices":19,
					"material":4
				},
				{
					"attributes":{
						"POSITION":20,
						"NORMAL":21,
						"TEXCOORD_0":22
					},
					"indices":23,
					"material":5
				},
				{
					"attributes":{
						"POSITION":24,
						"NORMAL":25,
						"TEXCOORD_0":26
					},
					"indices":27,
					"material":6
				},
				{
					"attributes":{
						"POSITION":28,
						"NORMAL":29,
						"TEXCOORD_0":30
					},
					"indices":31,
					"material":7
				},
				{
					"attributes":{
						"POSITION":32,
						"NORMAL":33,
						"TEXCOORD_0":34
					},
					"indices":35,
					"material":8
				},
				{
					"attributes":{
						"POSITION":36,
						"NORMAL":37,
						"TEXCOORD_0":38
					},
					"indices":39,
					"material":9
				},
				{
					"attributes":{
						"POSITION":40,
						"NORMAL":41,
						"TEXCOORD_0":42
					},
					"indices":43,
					"material":10
				},
				{
					"attributes":{
						"POSITION":44,
						"NORMAL":45,
						"TEXCOORD_0":46
					},
					"indices":47,
					"material":11
				},
				{
					"attributes":{
						"POSITION":48,
						"NORMAL":49,
						"TEXCOORD_0":50
					},
					"indices":51,
					"material":12
				},
				{
					"attributes":{
						"POSITION":52,
						"NORMAL":53,
						"TEXCOORD_0":54
					},
					"indices":31,
					"material":13
				},
				{
					"attributes":{
						"POSITION":55,
						"NORMAL":56,
						"TEXCOORD_0":57
					},
					"indices":58,
					"material":14
				},
				{
					"attributes":{
						"POSITION":59,
						"NORMAL":60,
						"TEXCOORD_0":61
					},
					"indices":62,
					"material":15
				}
			]
		}
	],
	"accessors":[
		{
			"bufferView":0,
			"componentType":5126,
			"count":652,
			"max":[
				1.8901609182357788,
				57.70199203491211,
				105.42899322509766
			],
			"min":[
				-4.687264442443848,
				-1,
				-37.55640411376953
			],
			"type":"VEC3"
		},
		{
			"bufferView":1,
			"componentType":5126,
			"count":652,
			"type":"VEC3"
		},
		{
			"bufferView":2,
			"componentType":5126,
			"count":652,
			"type":"VEC2"
		},
		{
			"bufferView":3,
			"componentType":5123,
			"count":1818,
			"type":"SCALAR"
		},
		{
			"bufferView":4,
			"componentType":5126,
			"count":4,
			"max":[
				0.9860167503356934,
				-0.2878468632698059,
				104.0851821899414
			],
			"min":[
				-4.56398344039917,
				-0.2878468632698059,
				-0.5019760131835938
			],
			"type":"VEC3"
		},
		{
			"bufferView":5,
			"componentType":5126,
			"count":4,
			"type":"VEC3"
		},
		{
			"bufferView":6,
			"componentType":5126,
			"count":4,
			"type":"VEC2"
		},
		{
			"bufferView":7,
			"componentType":5123,
			"count":6,
			"type":"SCALAR"
		},
		{
			"bufferView":8,
			"componentType":5126,
			"count":6,
			"max":[
				1.7848920822143555,
				-0.2878468632698059,
				104.0851821899414
			],
			"min":[
				-4.603335380554199,
				-0.2878468632698059,
				-36.95178985595703
			],
			"type":"VEC3"
		},
		{
			"bufferView":9,
			"componentType":5126,
			"count":6,
			"type":"VEC3"
		},
		{
			"bufferView":10,
			"componentType":5126,
			"count":6,
			"type":"VEC2"
		},
		{
			"bufferView":11,
			"componentType":5123,
			"count":12,
			"type":"SCALAR"
		},
		{
			"bufferView":12,
			"componentType":5126,
			"count":2054,
			"max":[
				0.027857542037963867,
				52.114742279052734,
				60.955528259277344
			],
			"min":[
				-2.402353286743164,
				0.824070930480957,
				15.449993133544922
			],
			"type":"VEC3"
		},
		{
			"bufferView":13,
			"componentType":5126,
			"count":2054,
			"type":"VEC3"
		},
		{
			"bufferView":14,
			"componentType":5126,
			"count":2054,
			"type":"VEC2"
		},
		{
			"bufferView":15,
			"componentType":5123,
			"count":5904,
			"type":"SCALAR"
		},
		{
			"bufferView":16,
			"componentType":5126,
			"count":6237,
			"max":[
				0.05287373065948486,
				52.114742279052734,
				50.207942962646484
			],
			"min":[
				-1.8166003227233887,
				0.824070930480957,
				14.978574752807617
			],
			"type":"VEC3"
		},
		{
			"bufferView":17,
			"componentType":5126,
			"count":6237,
			"type":"VEC3"
		},
		{
			"bufferView":18,
			"componentType":5126,
			"count":6237,
			"type":"VEC2"
		},
		{
			"bufferView":19,
			"componentType":5123,
			"count":14256,
			"type":"SCALAR"
		},
		{
			"bufferView":20,
			"componentType":5126,
			"count":18156,
			"max":[
				0.756894588470459,
				8.138261795043945,
				100.35468292236328
			],
			"min":[
				-4.261183261871338,
				-0.5563370585441589,
				9.688488006591797
			],
			"type":"VEC3"
		},
		{
			"bufferView":21,
			"componentType":5126,
			"count":18156,
			"type":"VEC3"
		},
		{
			"bufferView":22,
			"componentType":5126,
			"count":18156,
			"type":"VEC2"
		},
		{
			"bufferView":23,
			"componentType":5123,
			"count":20088,
			"type":"SCALAR"
		},
		{
			"bufferView":24,
			"componentType":5126,
			"count":5592,
			"max":[
				0.9103083610534668,
				10.415762901306152,
				104.57916259765625
			],
			"min":[
				-4.554440975189209,
				2.1110727787017822,
				4.333892822265625
			],
			"type":"VEC3"
		},
		{
			"bufferView":25,
			"componentType":5126,
			"count":5592,
			"type":"VEC3"
		},
		{
			"bufferView":26,
			"componentType":5126,
			"count":5592,
			"type":"VEC2"
		},
		{
			"bufferView":27,
			"componentType":5123,
			"count":5760,
			"type":"SCALAR"
		},
		{
			"bufferView":28,
			"componentType":5126,
			"count":1020,
			"max":[
				-1.011690616607666,
				2.031156301498413,
				-2.239018440246582
			],
			"min":[
				-4.497023582458496,
				-0.048911452293395996,
				-31.223087310791016
			],
			"type":"VEC3"
		},
		{
			"bufferView":29,
			"componentType":5126,
			"count":1020,
			"type":"VEC3"
		},
		{
			"bufferView":30,
			"componentType":5126,
			"count":1020,
			"type":"VEC2"
		},
		{
			"bufferView":31,
			"componentType":5123,
			"count":2556,
			"type":"SCALAR"
		},
		{
			"bufferView":32,
			"componentType":5126,
			"count":624,
			"max":[
				-0.9876265525817871,
				1.8668971061706543,
				-3.750077247619629
			],
			"min":[
				-4.524957180023193,
				0.9659055471420288,
				-31.223087310791016
			],
			"type":"VEC3"
		},
		{
			"bufferView":33,
			"componentType":5126,
			"count":624,
			"type":"VEC3"
		},
		{
			"bufferView":34,
			"componentType":5126,
			"count":624,
			"type":"VEC2"
		},
		{
			"bufferView":35,
			"componentType":5123,
			"count":1092,
			"type":"SCALAR"
		},
		{
			"bufferView":36,
			"componentType":5126,
			"count":510,
			"max":[
				-2.1335268020629883,
				2.031156301498413,
				-2.239011764526367
			],
			"min":[
				-3.375187397003174,
				-0.048911452293395996,
				-31.223087310791016
			],
			"type":"VEC3"
		},
		{
			"bufferView":37,
			"componentType":5126,
			"count":510,
			"type":"VEC3"
		},
		{
			"bufferView":38,
			"componentType":5126,
			"count":510,
			"type":"VEC2"
		},
		{
			"bufferView":39,
			"componentType":5123,
			"count":1278,
			"type":"SCALAR"
		},
		{
			"bufferView":40,
			"componentType":5126,
			"count":23296,
			"max":[
				-0.9785321950912476,
				0.686755359172821,
				-3.4235715866088867
			],
			"min":[
				-4.5333943367004395,
				-0.2570275068283081,
				-30.324785232543945
			],
			"type":"VEC3"
		},
		{
			"bufferView":41,
			"componentType":5126,
			"count":23296,
			"type":"VEC3"
		},
		{
			"bufferView":42,
			"componentType":5126,
			"count":23296,
			"type":"VEC2"
		},
		{
			"bufferView":43,
			"componentType":5123,
			"count":49296,
			"type":"SCALAR"
		},
		{
			"bufferView":44,
			"componentType":5126,
			"count":3328,
			"max":[
				-0.9785323143005371,
				0.5670538544654846,
				-3.652454376220703
			],
			"min":[
				-4.5333943367004395,
				-0.13732600212097168,
				-30.095905303955078
			],
			"type":"VEC3"
		},
		{
			"bufferView":45,
			"componentType":5126,
			"count":3328,
			"type":"VEC3"
		},
		{
			"bufferView":46,
			"componentType":5126,
			"count":3328,
			"type":"VEC2"
		},
		{
			"bufferView":47,
			"componentType":5123,
			"count":9360,
			"type":"SCALAR"
		},
		{
			"bufferView":48,
			"componentType":5126,
			"count":1360,
			"max":[
				-0.9876265525817871,
				2.031156301498413,
				-2.239018440246582
			],
			"min":[
				-4.524957180023193,
				-0.048911452293395996,
				-31.223087310791016
			],
			"type":"VEC3"
		},
		{
			"bufferView":49,
			"componentType":5126,
			"count":1360,
			"type":"VEC3"
		},
		{
			"bufferView":50,
			"componentType":5126,
			"count":1360,
			"type":"VEC2"
		},
		{
			"bufferView":51,
			"componentType":5123,
			"count":3408,
			"type":"SCALAR"
		},
		{
			"bufferView":52,
			"componentType":5126,
			"count":1020,
			"max":[
				-1.3547916412353516,
				2.031156301498413,
				-2.239018440246582
			],
			"min":[
				-3.7291247844696045,
				-0.048911452293395996,
				-31.223087310791016
			],
			"type":"VEC3"
		},
		{
			"bufferView":53,
			"componentType":5126,
			"count":1020,
			"type":"VEC3"
		},
		{
			"bufferView":54,
			"componentType":5126,
			"count":1020,
			"type":"VEC2"
		},
		{
			"bufferView":55,
			"componentType":5126,
			"count":340,
			"max":[
				-1.6892871856689453,
				2.031156301498413,
				-2.2390174865722656
			],
			"min":[
				-4.135632514953613,
				-0.048911452293395996,
				-10.493766784667969
			],
			"type":"VEC3"
		},
		{
			"bufferView":56,
			"componentType":5126,
			"count":340,
			"type":"VEC3"
		},
		{
			"bufferView":57,
			"componentType":5126,
			"count":340,
			"type":"VEC2"
		},
		{
			"bufferView":58,
			"componentType":5123,
			"count":852,
			"type":"SCALAR"
		},
		{
			"bufferView":59,
			"componentType":5126,
			"count":170,
			"max":[
				-1.3905415534973145,
				2.031156301498413,
				-13.91801929473877
			],
			"min":[
				-1.6318211555480957,
				-0.04891139268875122,
				-22.172767639160156
			],
			"type":"VEC3"
		},
		{
			"bufferView":60,
			"componentType":5126,
			"count":170,
			"type":"VEC3"
		},
		{
			"bufferView":61,
			"componentType":5126,
			"count":170,
			"type":"VEC2"
		},
		{
			"bufferView":62,
			"componentType":5123,
			"count":426,
			"type":"SCALAR"
		}
	],
	"bufferViews":[
		{
			"buffer":0,
			"byteLength":7824,
			"byteOffset":0,
			"target":34962
		},
		{
			"buffer":0,
			"byteLength":7824,
			"byteOffset":7824,
			"target":34962
		},
		{
			"buffer":0,
			"byteLength":5216,
			"byteOffset":15648,
			"target":34962
		},
		{
			"buffer":0,
			"byteLength":3636,
			"byteOffset":20864,
			"target":34963
		},
		{
			"buffer":0,
			"byteLength":48,
			"byteOffset":24500,
			"target":34962
		},
		{
			"buffer":0,
			"byteLength":48,
			"byteOffset":24548,
			"target":34962
		},
		{
			"buffer":0,
			"byteLength":32,
			"byteOffset":24596,
			"target":34962
		},
		{
			"buffer":0,
			"byteLength":12,
			"byteOffset":24628,
			"target":34963
		},
		{
			"buffer":0,
			"byteLength":72,
			"byteOffset":24640,
			"target":34962
		},
		{
			"buffer":0,
			"byteLength":72,
			"byteOffset":24712,
			"target":34962
		},
		{
			"buffer":0,
			"byteLength":48,
			"byteOffset":24784,
			"target":34962
		},
		{
			"buffer":0,
			"byteLength":24,
			"byteOffset":24832,
			"target":34963
		},
		{
			"buffer":0,
			"byteLength":24648,
			"byteOffset":24856,
			"target":34962
		},
		{
			"buffer":0,
			"byteLength":24648,
			"byteOffset":49504,
			"target":34962
		},
		{
			"buffer":0,
			"byteLength":16432,
			"byteOffset":74152,
			"target":34962
		},
		{
			"buffer":0,
			"byteLength":11808,
			"byteOffset":90584,
			"target":34963
		},
		{
			"buffer":0,
			"byteLength":74844,
			"byteOffset":102392,
			"target":34962
		},
		{
			"buffer":0,
			"byteLength":74844,
			"byteOffset":177236,
			"target":34962
		},
		{
			"buffer":0,
			"byteLength":49896,
			"byteOffset":252080,
			"target":34962
		},
		{
			"buffer":0,
			"byteLength":28512,
			"byteOffset":301976,
			"target":34963
		},
		{
			"buffer":0,
			"byteLength":217872,
			"byteOffset":330488,
			"target":34962
		},
		{
			"buffer":0,
			"byteLength":217872,
			"byteOffset":548360,
			"target":34962
		},
		{
			"buffer":0,
			"byteLength":145248,
			"byteOffset":766232,
			"target":34962
		},
		{
			"buffer":0,
			"byteLength":40176,
			"byteOffset":911480,
			"target":34963
		},
		{
			"buffer":0,
			"byteLength":67104,
			"byteOffset":951656,
			"target":34962
		},
		{
			"buffer":0,
			"byteLength":67104,
			"byteOffset":1018760,
			"target":34962
		},
		{
			"buffer":0,
			"byteLength":44736,
			"byteOffset":1085864,
			"target":34962
		},
		{
			"buffer":0,
			"byteLength":11520,
			"byteOffset":1130600,
			"target":34963
		},
		{
			"buffer":0,
			"byteLength":12240,
			"byteOffset":1142120,
			"target":34962
		},
		{
			"buffer":0,
			"byteLength":12240,
			"byteOffset":1154360,
			"target":34962
		},
		{
			"buffer":0,
			"byteLength":8160,
			"byteOffset":1166600,
			"target":34962
		},
		{
			"buffer":0,
			"byteLength":5112,
			"byteOffset":1174760,
			"target":34963
		},
		{
			"buffer":0,
			"byteLength":7488,
			"byteOffset":1179872,
			"target":34962
		},
		{
			"buffer":0,
			"byteLength":7488,
			"byteOffset":1187360,
			"target":34962
		},
		{
			"buffer":0,
			"byteLength":4992,
			"byteOffset":1194848,
			"target":34962
		},
		{
			"buffer":0,
			"byteLength":2184,
			"byteOffset":1199840,
			"target":34963
		},
		{
			"buffer":0,
			"byteLength":6120,
			"byteOffset":1202024,
			"target":34962
		},
		{
			"buffer":0,
			"byteLength":6120,
			"byteOffset":1208144,
			"target":34962
		},
		{
			"buffer":0,
			"byteLength":4080,
			"byteOffset":1214264,
			"target":34962
		},
		{
			"buffer":0,
			"byteLength":2556,
			"byteOffset":1218344,
			"target":34963
		},
		{
			"buffer":0,
			"byteLength":279552,
			"byteOffset":1220900,
			"target":34962
		},
		{
			"buffer":0,
			"byteLength":279552,
			"byteOffset":1500452,
			"target":34962
		},
		{
			"buffer":0,
			"byteLength":186368,
			"byteOffset":1780004,
			"target":34962
		},
		{
			"buffer":0,
			"byteLength":98592,
			"byteOffset":1966372,
			"target":34963
		},
		{
			"buffer":0,
			"byteLength":39936,
			"byteOffset":2064964,
			"target":34962
		},
		{
			"buffer":0,
			"byteLength":39936,
			"byteOffset":2104900,
			"target":34962
		},
		{
			"buffer":0,
			"byteLength":26624,
			"byteOffset":2144836,
			"target":34962
		},
		{
			"buffer":0,
			"byteLength":18720,
			"byteOffset":2171460,
			"target":34963
		},
		{
			"buffer":0,
			"byteLength":16320,
			"byteOffset":2190180,
			"target":34962
		},
		{
			"buffer":0,
			"byteLength":16320,
			"byteOffset":2206500,
			"target":34962
		},
		{
			"buffer":0,
			"byteLength":10880,
			"byteOffset":2222820,
			"target":34962
		},
		{
			"buffer":0,
			"byteLength":6816,
			"byteOffset":2233700,
			"target":34963
		},
		{
			"buffer":0,
			"byteLength":12240,
			"byteOffset":2240516,
			"target":34962
		},
		{
			"buffer":0,
			"byteLength":12240,
			"byteOffset":2252756,
			"target":34962
		},
		{
			"buffer":0,
			"byteLength":8160,
			"byteOffset":2264996,
			"target":34962
		},
		{
			"buffer":0,
			"byteLength":4080,
			"byteOffset":2273156,
			"target":34962
		},
		{
			"buffer":0,
			"byteLength":4080,
			"byteOffset":2277236,
			"target":34962
		},
		{
			"buffer":0,
			"byteLength":2720,
			"byteOffset":2281316,
			"target":34962
		},
		{
			"buffer":0,
			"byteLength":1704,
			"byteOffset":2284036,
			"target":34963
		},
		{
			"buffer":0,
			"byteLength":2040,
			"byteOffset":2285740,
			"target":34962
		},
		{
			"buffer":0,
			"byteLength":2040,
			"byteOffset":2287780,
			"target":34962
		},
		{
			"buffer":0,
			"byteLength":1360,
			"byteOffset":2289820,
			"target":34962
		},
		{
			"buffer":0,
			"byteLength":852,
			"byteOffset":2291180,
			"target":34963
		}
	],
	"buffers":[
		{
			"byteLength":2292032,
			"uri":"scene.bin"
		}
	]
}
