{
	"asset":{
		"generator":"Khronos glTF Blender I/O v4.2.57",
		"version":"2.0"
	},
	"scene":0,
	"scenes":[
		{
			"name":"Scene",
			"nodes":[
				0
			]
		}
	],
	"nodes":[
		{
			"mesh":0,
			"name":"object",
			"scale":[
				0.8549246788024902,
				0.08674664795398712,
				0.045367248356342316
			],
			"translation":[
				0.8392331600189209,
				0.06985632330179214,
				-1.563973069190979
			]
		}
	],
	"materials":[
		{
			"doubleSided":true,
			"name":"Material",
			"pbrMetallicRoughness":{
				"baseColorFactor":[
					0.800000011920929,
					0.800000011920929,
					0.800000011920929,
					1
				],
				"metallicFactor":0,
				"roughnessFactor":0.5
			}
		}
	],
	"meshes":[
		{
			"name":"Cube.005",
			"primitives":[
				{
					"attributes":{
						"POSITION":0,
						"NORMAL":1,
						"TEXCOORD_0":2
					},
					"indices":3,
					"material":0
				}
			]
		}
	],
	"accessors":[
		{
			"bufferView":0,
			"componentType":5126,
			"count":60869,
			"max":[
				1.8901609182357788,
				57.70199203491211,
				105.42899322509766
			],
			"min":[
				-4.687264442443848,
				-1,
				-37.55640411376953
			],
			"type":"VEC3"
		},
		{
			"bufferView":1,
			"componentType":5126,
			"count":60869,
			"type":"VEC3"
		},
		{
			"bufferView":2,
			"componentType":5126,
			"count":60869,
			"type":"VEC2"
		},
		{
			"bufferView":3,
			"componentType":5123,
			"count":118668,
			"type":"SCALAR"
		}
	],
	"bufferViews":[
		{
			"buffer":0,
			"byteLength":730428,
			"byteOffset":0,
			"target":34962
		},
		{
			"buffer":0,
			"byteLength":730428,
			"byteOffset":730428,
			"target":34962
		},
		{
			"buffer":0,
			"byteLength":486952,
			"byteOffset":1460856,
			"target":34962
		},
		{
			"buffer":0,
			"byteLength":237336,
			"byteOffset":1947808,
			"target":34963
		}
	],
	"buffers":[
		{
			"byteLength":2185144,
			"uri":"scene.bin"
		}
	]
}
