{
	"asset":{
		"generator":"Khronos glTF Blender I/O v4.2.57",
		"version":"2.0"
	},
	"scene":0,
	"scenes":[
		{
			"name":"Scene",
			"nodes":[
				0
			]
		}
	],
	"nodes":[
		{
			"mesh":0,
			"name":"Car.001",
			"rotation":[
				0,
				-1,
				0,
				1.6292068494294654e-07
			],
			"scale":[
				0.3724077343940735,
				0.18594680726528168,
				0.5523447394371033
			],
			"translation":[
				0.7863932251930237,
				0.7240570187568665,
				-18.5660457611084
			]
		}
	],
	"materials":[
		{
			"doubleSided":true,
			"name":"TireWhite",
			"pbrMetallicRoughness":{
				"baseColorFactor":[
					0.800000011920929,
					0.800000011920929,
					0.800000011920929,
					1
				],
				"metallicFactor":0,
				"roughnessFactor":0.5
			}
		}
	],
	"meshes":[
		{
			"name":"Cube.010",
			"primitives":[
				{
					"attributes":{
						"POSITION":0,
						"NORMAL":1,
						"TEXCOORD_0":2
					},
					"indices":3,
					"material":0
				}
			]
		}
	],
	"accessors":[
		{
			"bufferView":0,
			"componentType":5126,
			"count":168137,
			"max":[
				30.22434425354004,
				61.20817565917969,
				7.289134979248047
			],
			"min":[
				-53.61863708496094,
				-3.796875,
				-49.32383728027344
			],
			"type":"VEC3"
		},
		{
			"bufferView":1,
			"componentType":5126,
			"count":168137,
			"type":"VEC3"
		},
		{
			"bufferView":2,
			"componentType":5126,
			"count":168137,
			"type":"VEC2"
		},
		{
			"bufferView":3,
			"componentType":5125,
			"count":320586,
			"type":"SCALAR"
		}
	],
	"bufferViews":[
		{
			"buffer":0,
			"byteLength":2017644,
			"byteOffset":0,
			"target":34962
		},
		{
			"buffer":0,
			"byteLength":2017644,
			"byteOffset":2017644,
			"target":34962
		},
		{
			"buffer":0,
			"byteLength":1345096,
			"byteOffset":4035288,
			"target":34962
		},
		{
			"buffer":0,
			"byteLength":1282344,
			"byteOffset":5380384,
			"target":34963
		}
	],
	"buffers":[
		{
			"byteLength":6662728,
			"uri":"scene.bin"
		}
	]
}
